<svg xmlns="http://www.w3.org/2000/svg" xmlns:xlink="http://www.w3.org/1999/xlink" width="108" height="108" viewBox="0 0 108 108">
  <defs>
    <filter id="Fondo" x="0" y="0" width="108" height="108" filterUnits="userSpaceOnUse">
      <feOffset dy="3" input="SourceAlpha"/>
      <feGaussianBlur stdDeviation="3" result="blur"/>
      <feFlood flood-opacity="0.161"/>
      <feComposite operator="in" in2="blur"/>
      <feComposite in="SourceGraphic"/>
    </filter>
    <clipPath id="clip-path">
      <path id="path8688" d="M0-682.665H83.5v83.5H0Z" transform="translate(0 682.665)"/>
    </clipPath>
  </defs>
  <g id="Grupo_1143036" data-name="Grupo 1143036" transform="translate(-196.687 -1186)">
    <g transform="matrix(1, 0, 0, 1, 196.69, 1186)" filter="url(#Fondo)">
      <g id="Fondo-2" data-name="Fondo" transform="translate(9 6)" fill="#f6ecaa">
        <path d="M 45 88.5 C 39.12687683105469 88.5 33.43022537231445 87.35007476806641 28.06830024719238 85.08217620849609 C 22.88852500915527 82.89131164550781 18.23629951477051 79.75458526611328 14.2408504486084 75.75914764404297 C 10.24541282653809 71.76370239257812 7.108687400817871 67.11147308349609 4.917825222015381 61.93170166015625 C 2.649924993515015 56.56977462768555 1.5 50.87312316894531 1.5 45 C 1.5 39.12687683105469 2.649924993515015 33.43022537231445 4.917825222015381 28.06830024719238 C 7.108687400817871 22.88852500915527 10.24541282653809 18.23629951477051 14.2408504486084 14.2408504486084 C 18.23629951477051 10.24541282653809 22.88852500915527 7.108687400817871 28.06830024719238 4.917825222015381 C 33.43022537231445 2.649924993515015 39.12687683105469 1.5 45 1.5 C 50.87312316894531 1.5 56.56977462768555 2.649924993515015 61.93170166015625 4.917825222015381 C 67.11147308349609 7.108687400817871 71.76370239257812 10.24541282653809 75.75914764404297 14.2408504486084 C 79.75458526611328 18.23629951477051 82.89131164550781 22.88852500915527 85.08217620849609 28.06830024719238 C 87.35007476806641 33.43022537231445 88.5 39.12687683105469 88.5 45 C 88.5 50.87312316894531 87.35007476806641 56.56977462768555 85.08217620849609 61.93170166015625 C 82.89131164550781 67.11147308349609 79.75458526611328 71.76370239257812 75.75914764404297 75.75914764404297 C 71.76370239257812 79.75458526611328 67.11147308349609 82.89131164550781 61.93170166015625 85.08217620849609 C 56.56977462768555 87.35007476806641 50.87312316894531 88.5 45 88.5 Z" stroke="none"/>
        <path d="M 45 3 C 39.32871246337891 3 33.82865524291992 4.110054016113281 28.65262985229492 6.299339294433594 C 23.65165710449219 8.414573669433594 19.15968322753906 11.44334411621094 15.301513671875 15.301513671875 C 11.44334411621094 19.15968322753906 8.414573669433594 23.65165710449219 6.299339294433594 28.65262985229492 C 4.110054016113281 33.82865524291992 3 39.32871246337891 3 45 C 3 50.67128753662109 4.110054016113281 56.17134475708008 6.299339294433594 61.34737396240234 C 8.414573669433594 66.34834289550781 11.44334411621094 70.84031677246094 15.301513671875 74.698486328125 C 19.15968322753906 78.55665588378906 23.65165710449219 81.58542633056641 28.65262985229492 83.70066070556641 C 33.82865524291992 85.88994598388672 39.32871246337891 87 45 87 C 50.67128753662109 87 56.17134475708008 85.88994598388672 61.34737396240234 83.70066070556641 C 66.34834289550781 81.58542633056641 70.84031677246094 78.55665588378906 74.698486328125 74.698486328125 C 78.55665588378906 70.84031677246094 81.58542633056641 66.34834289550781 83.70066070556641 61.34737396240234 C 85.88994598388672 56.17134475708008 87 50.67128753662109 87 45 C 87 39.32871246337891 85.88994598388672 33.82865524291992 83.70066070556641 28.65262985229492 C 81.58542633056641 23.65165710449219 78.55665588378906 19.15968322753906 74.698486328125 15.301513671875 C 70.84031677246094 11.44334411621094 66.34834289550781 8.414573669433594 61.34737396240234 6.299339294433594 C 56.17134475708008 4.110054016113281 50.67128753662109 3 45 3 M 45 0 C 69.85281372070312 0 90 20.14718627929688 90 45 C 90 69.85281372070312 69.85281372070312 90 45 90 C 20.14718627929688 90 0 69.85281372070312 0 45 C 0 20.14718627929688 20.14718627929688 0 45 0 Z" stroke="none" fill="#dfd281"/>
      </g>
    </g>
    <g id="g8682" transform="translate(208.938 1877.916)">
      <g id="g8684" transform="translate(0 -682.665)">
        <g id="g8686" clip-path="url(#clip-path)">
          <g id="g8692" transform="translate(49.414 25.441)">
            <path id="path8694" d="M0-234.365A27.284,27.284,0,0,0,19.57-260.5a27.2,27.2,0,0,0-.792-6.523" transform="translate(0 267.025)" fill="none" stroke="#000" stroke-linecap="round" stroke-linejoin="round" stroke-miterlimit="10" stroke-width="1.5"/>
          </g>
          <g id="g8696" transform="translate(14.514 25.441)">
            <path id="path8698" d="M-5.68,0A27.243,27.243,0,0,0,12.282,32.406" transform="translate(6.472)" fill="none" stroke="#000" stroke-linecap="round" stroke-linejoin="round" stroke-miterlimit="10" stroke-width="1.5"/>
          </g>
          <g id="g8700" transform="translate(22.016 31.964)">
            <path id="path8702" d="M-283.2,0a19.733,19.733,0,0,1-19.733,19.733A19.733,19.733,0,0,1-322.666,0" transform="translate(322.666)" fill="none" stroke="#000" stroke-linecap="round" stroke-linejoin="round" stroke-miterlimit="10" stroke-width="1.5"/>
          </g>
          <g id="g8704" transform="translate(42.671 47.687)">
            <path id="path8706" d="M-54.173-216.027-61.723-244.2l7.2-1.93,7.549,28.174Z" transform="translate(61.723 246.131)" fill="#fed2a4"/>
          </g>
          <g id="g8708" transform="translate(42.671 47.687)">
            <path id="path8710" d="M-26.15-20.386l4.031-1.08-.472-1.761-7.2,1.93,7.549,28.174,3.172-.85Z" transform="translate(29.795 23.227)" fill="#ffbd86"/>
          </g>
          <g id="g8712" transform="translate(42.671 47.688)">
            <path id="path8714" d="M-86.836-131.157l-4.9-18.277-7.2,1.93,7.549,28.174,7.2-1.93-1.175-4.384" transform="translate(98.937 149.434)" fill="none" stroke="#000" stroke-linecap="round" stroke-linejoin="round" stroke-miterlimit="10" stroke-width="1.5"/>
          </g>
          <g id="g8716" transform="translate(50.134 75.027)">
            <path id="path8718" d="M-9.234-52l-1.287-4.8,8.8-2.359a2.486,2.486,0,0,1,3.045,1.758A2.486,2.486,0,0,1-.43-54.362Z" transform="translate(10.521 59.25)" fill="#01d0fb"/>
          </g>
          <g id="g8720" transform="translate(50.134 76.642)">
            <path id="path8722" d="M-25.74-13.115l-.49-1.828-3.1.83,1.287,4.8,8.8-2.359a2.485,2.485,0,0,0,1.8-2.828l-7.31,1.959a.815.815,0,0,1-1-.577" transform="translate(29.327 14.943)" fill="#01c1fa"/>
          </g>
          <g id="g8724" transform="translate(50.134 75.027)">
            <path id="path8726" d="M-9.234-52l-1.287-4.8,8.8-2.359a2.486,2.486,0,0,1,3.045,1.758A2.486,2.486,0,0,1-.43-54.362Z" transform="translate(10.521 59.25)" fill="none" stroke="#000" stroke-linecap="round" stroke-linejoin="round" stroke-miterlimit="10" stroke-width="1.5"/>
          </g>
          <g id="g8728" transform="translate(26.074 47.687)">
            <path id="path8730" d="M-51.692-216.027l7.549-28.174-7.2-1.93L-58.9-217.957Z" transform="translate(58.896 246.131)" fill="#fed2a4"/>
          </g>
          <g id="g8732" transform="translate(26.074 47.688)">
            <path id="path8734" d="M-73.664-10.045l4.32,1.158.168-.627-7.2-1.93-7.549,28.174,2.884.773Z" transform="translate(83.929 11.445)" fill="#ffbd86"/>
          </g>
          <g id="g8736" transform="translate(26.074 47.687)">
            <path id="path8738" d="M-51.692-216.027l7.549-28.174-7.2-1.93L-58.9-217.957Z" transform="translate(58.896 246.131)" fill="none" stroke="#000" stroke-linecap="round" stroke-linejoin="round" stroke-miterlimit="10" stroke-width="1.5"/>
          </g>
          <g id="g8740" transform="translate(30.313 47.13)">
            <path id="path8742" d="M-155.3,0h-20.414l-1.228,11.27,8.452,1.7,2.526-5.93a.5.5,0,0,1,.915,0l2.526,5.93,8.452-1.7Z" transform="translate(176.944)" fill="#53469c"/>
          </g>
          <g id="g8744" transform="translate(30.313 47.13)">
            <path id="path8746" d="M-40.227-55.662l.846-7.757H-44.6l-1.228,11.269,8.452,1.7,1.524-3.577-3.72-.749a.815.815,0,0,1-.65-.888" transform="translate(45.833 63.419)" fill="#463a84"/>
          </g>
          <g id="g8748" transform="translate(30.313 47.13)">
            <path id="path8750" d="M-155.3,0h-20.414l-1.228,11.27,8.452,1.7,2.526-5.93a.5.5,0,0,1,.915,0l2.526,5.93,8.452-1.7Z" transform="translate(176.944)" fill="none" stroke="#000" stroke-linecap="round" stroke-linejoin="round" stroke-miterlimit="10" stroke-width="1.5"/>
          </g>
          <g id="g8752" transform="translate(21.429 75.027)">
            <path id="path8754" d="M-76.407-52l1.287-4.8-8.8-2.359a2.486,2.486,0,0,0-3.045,1.758,2.486,2.486,0,0,0,1.758,3.045Z" transform="translate(87.054 59.25)" fill="#01d0fb"/>
          </g>
          <g id="g8756" transform="translate(21.429 75.027)">
            <path id="path8758" d="M-36.164-25.127a2.486,2.486,0,0,1-1.758-3.045,2.471,2.471,0,0,1,.1-.3l-.257-.069a2.486,2.486,0,0,0-3.045,1.758,2.486,2.486,0,0,0,1.758,3.045l8.8,2.359L-30-23.474Z" transform="translate(41.204 28.629)" fill="#01c1fa"/>
          </g>
          <g id="g8760" transform="translate(21.429 75.027)">
            <path id="path8762" d="M-76.407-52l1.287-4.8-8.8-2.359a2.486,2.486,0,0,0-3.045,1.758,2.486,2.486,0,0,0,1.758,3.045Z" transform="translate(87.054 59.25)" fill="none" stroke="#000" stroke-linecap="round" stroke-linejoin="round" stroke-miterlimit="10" stroke-width="1.5"/>
          </g>
          <g id="g8764" transform="translate(10.26 8.443)">
            <path id="path8766" d="M-56.774,0a1.668,1.668,0,0,0-1.668,1.668V2.33l-1.151-1.151a2.134,2.134,0,0,0-3.018,0l-1.45,1.45a2.134,2.134,0,0,0,0,3.018l2.933,2.933a2.126,2.126,0,0,0,1.591.621l17.922,17.921,3.5-3.5-16.99-16.99V1.668A1.668,1.668,0,0,0-56.774,0" transform="translate(64.686)" fill="#fed2a4"/>
          </g>
          <g id="g8768" transform="translate(10.26 10.176)">
            <path id="path8770" d="M-176.278-167.253-194.2-185.175a2.126,2.126,0,0,1-1.591-.621l-2.934-2.933a2.13,2.13,0,0,1-.6-1.832l-.9.9a2.134,2.134,0,0,0,0,3.018l2.934,2.933a2.125,2.125,0,0,0,1.591.621l17.922,17.922,3.5-3.5-.294-.294Z" transform="translate(200.844 190.561)" fill="#ffbd86"/>
          </g>
          <g id="g8772" transform="translate(10.26 8.443)">
            <path id="path8774" d="M-78.33-57.2l-1.336-1.337v-4.967a1.668,1.668,0,0,0-1.667-1.668A1.668,1.668,0,0,0-83-63.506v.662l-1.151-1.151a2.134,2.134,0,0,0-3.018,0l-1.45,1.45a2.134,2.134,0,0,0,0,3.018l2.934,2.933a2.125,2.125,0,0,0,1.591.621L-66.174-38.05l3.5-3.5L-74.294-53.166" transform="translate(89.245 65.173)" fill="none" stroke="#000" stroke-linecap="round" stroke-linejoin="round" stroke-miterlimit="10" stroke-width="1.5"/>
          </g>
          <g id="g8776" transform="translate(46.668 8.443)">
            <path id="path8778" d="M-133.886,0a1.668,1.668,0,0,1,1.668,1.668V2.33l1.151-1.151a2.134,2.134,0,0,1,3.018,0l1.45,1.45a2.134,2.134,0,0,1,0,3.018l-2.933,2.933a2.126,2.126,0,0,1-1.591.621l-17.922,17.921-3.5-3.5,16.99-16.99V1.668A1.668,1.668,0,0,1-133.886,0" transform="translate(152.544)" fill="#fed2a4"/>
          </g>
          <g id="g8780" transform="translate(46.668 8.443)">
            <path id="path8782" d="M-17.364-179.162l16.99-16.99v-4.967A1.666,1.666,0,0,1,.534-202.6a1.667,1.667,0,0,0-1.66-1.526,1.668,1.668,0,0,0-1.667,1.668v4.967l-16.99,16.99,3.5,3.5.539-.539Z" transform="translate(19.784 204.129)" fill="#ffbd86"/>
          </g>
          <g id="g8784" transform="translate(46.668 8.443)">
            <path id="path8786" d="M-133.886,0a1.668,1.668,0,0,1,1.668,1.668V2.33l1.151-1.151a2.134,2.134,0,0,1,3.018,0l1.45,1.45a2.134,2.134,0,0,1,0,3.018l-2.933,2.933a2.126,2.126,0,0,1-1.591.621l-17.922,17.921-3.5-3.5,16.99-16.99V1.668A1.668,1.668,0,0,1-133.886,0Z" transform="translate(152.544)" fill="none" stroke="#000" stroke-linecap="round" stroke-linejoin="round" stroke-miterlimit="10" stroke-width="1.5"/>
          </g>
          <g id="g8788" transform="translate(31.639 1.223)">
            <path id="path8790" d="M-108.777-238.483h-10.1a5.06,5.06,0,0,1-5.06-5.06V-263a8.712,8.712,0,0,1,8.712-8.712h2.794A8.712,8.712,0,0,1-103.717-263v19.462a5.06,5.06,0,0,1-5.06,5.06" transform="translate(123.936 271.717)" fill="#bb5d4c"/>
          </g>
          <g id="g8792" transform="translate(31.639 1.223)">
            <path id="path8794" d="M-39.777-202.172v-19.462a8.713,8.713,0,0,1,7.338-8.6,8.778,8.778,0,0,0-1.374-.109h-2.795a8.712,8.712,0,0,0-8.712,8.712v19.462a5.06,5.06,0,0,0,5.06,5.06h5.543a5.06,5.06,0,0,1-5.06-5.06" transform="translate(45.32 230.346)" fill="#a44f3e"/>
          </g>
          <g id="g8796" transform="translate(31.639 1.223)">
            <path id="path8798" d="M-108.777-238.483h-10.1a5.06,5.06,0,0,1-5.06-5.06V-263a8.712,8.712,0,0,1,8.712-8.712h2.794A8.712,8.712,0,0,1-103.717-263v19.462A5.06,5.06,0,0,1-108.777-238.483Z" transform="translate(123.936 271.717)" fill="none" stroke="#000" stroke-linecap="round" stroke-linejoin="round" stroke-miterlimit="10" stroke-width="1.5"/>
          </g>
          <g id="g8800" transform="translate(30.919 25.502)">
            <path id="path8802" d="M-151.6-169.467h-20.592a.5.5,0,0,1-.482-.621l2.019-7.822a8.287,8.287,0,0,0,.1-3.686l-2.165-10.892a.5.5,0,0,1,.488-.594h20.665a.5.5,0,0,1,.488.594l-2.165,10.892a8.285,8.285,0,0,0,.1,3.686l2.019,7.822a.5.5,0,0,1-.481.621" transform="translate(172.723 193.084)" fill="#fe7701"/>
          </g>
          <g id="g8804" transform="translate(30.919 25.502)">
            <path id="path8806" d="M-39.686-165.007l2.019-7.823a8.287,8.287,0,0,0,.1-3.686l-2.165-10.892a.5.5,0,0,1,.488-.594h-5.478a.5.5,0,0,0-.488.594l2.165,10.892a8.287,8.287,0,0,1-.1,3.686l-2.019,7.823a.5.5,0,0,0,.481.621H-39.2a.5.5,0,0,1-.481-.621" transform="translate(45.217 188.002)" fill="#f46700"/>
          </g>
          <g id="g8808" transform="translate(30.919 25.503)">
            <path id="path8810" d="M-113.991-169.466h5.241a.5.5,0,0,0,.481-.622l-2.019-7.822a8.288,8.288,0,0,1-.1-3.686l2.165-10.892a.5.5,0,0,0-.488-.594h-20.665a.5.5,0,0,0-.488.594L-127.7-181.6a8.288,8.288,0,0,1-.1,3.686l-2.019,7.822a.5.5,0,0,0,.481.622h9.644" transform="translate(129.876 193.082)" fill="none" stroke="#000" stroke-linecap="round" stroke-linejoin="round" stroke-miterlimit="10" stroke-width="1.5"/>
          </g>
          <g id="g8812" transform="translate(39.231 23.445)">
            <path id="path8814" d="M-31.747-.269h-3.813a5.184,5.184,0,0,1-.611-.038V2.315a2.5,2.5,0,0,0,2.5,2.5h.032a2.5,2.5,0,0,0,2.5-2.5V-.307a5.18,5.18,0,0,1-.611.038" transform="translate(36.171 0.307)" fill="#fed2a4"/>
          </g>
          <g id="g8816" transform="translate(39.231 23.445)">
            <path id="path8818" d="M-31.747-.269h-3.813a5.184,5.184,0,0,1-.611-.038V2.315a2.5,2.5,0,0,0,2.5,2.5h.032a2.5,2.5,0,0,0,2.5-2.5V-.307A5.18,5.18,0,0,1-31.747-.269Z" transform="translate(36.171 0.307)" fill="none" stroke="#000" stroke-linecap="round" stroke-linejoin="round" stroke-miterlimit="10" stroke-width="1.5"/>
          </g>
          <g id="g8820" transform="translate(30.335 12.503)">
            <path id="path8822" d="M-144.218-39.172h-17.368a2.729,2.729,0,0,1-2.729-2.729,2.729,2.729,0,0,1,2.729-2.729h17.368a2.729,2.729,0,0,1,2.729,2.729,2.729,2.729,0,0,1-2.729,2.729" transform="translate(164.316 44.631)" fill="#fed2a4"/>
          </g>
          <g id="g8824" transform="translate(30.335 12.503)">
            <path id="path8826" d="M-144.218-39.172h-17.368a2.729,2.729,0,0,1-2.729-2.729,2.729,2.729,0,0,1,2.729-2.729h17.368a2.729,2.729,0,0,1,2.729,2.729A2.729,2.729,0,0,1-144.218-39.172Z" transform="translate(164.316 44.631)" fill="none" stroke="#000" stroke-linecap="round" stroke-linejoin="round" stroke-miterlimit="10" stroke-width="1.5"/>
          </g>
          <g id="g8828" transform="translate(34.526 8.553)">
            <path id="path8830" d="M-82.632-.393-93.488,1.863a.829.829,0,0,0-.66.811v5.1a6.874,6.874,0,0,0,6.874,6.875h.7A6.874,6.874,0,0,0-79.7,7.773V2A2.484,2.484,0,0,0-80.8-.063a2.4,2.4,0,0,0-1.831-.33" transform="translate(94.148 0.448)" fill="#fed2a4"/>
          </g>
          <g id="g8832" transform="translate(34.526 10.144)">
            <path id="path8834" d="M-29.593-47.575v-6.63l-3.464.72a.829.829,0,0,0-.66.811v5.1A6.874,6.874,0,0,0-26.843-40.7h.7a6.889,6.889,0,0,0,1.714-.216,6.877,6.877,0,0,1-5.161-6.659" transform="translate(33.717 54.205)" fill="#ffbd86"/>
          </g>
          <g id="g8836" transform="translate(34.526 8.553)">
            <path id="path8838" d="M-82.632-.393-93.488,1.863a.829.829,0,0,0-.66.811v5.1a6.874,6.874,0,0,0,6.874,6.875h.7A6.874,6.874,0,0,0-79.7,7.773V2A2.484,2.484,0,0,0-80.8-.063,2.4,2.4,0,0,0-82.632-.393Z" transform="translate(94.148 0.448)" fill="none" stroke="#000" stroke-linecap="round" stroke-linejoin="round" stroke-miterlimit="10" stroke-width="1.5"/>
          </g>
          <g id="g8840" transform="translate(38.103 13.321)">
            <path id="path8842" d="M0,0V1.326" transform="translate(0)" fill="none" stroke="#000" stroke-linecap="round" stroke-linejoin="round" stroke-miterlimit="10" stroke-width="1.5"/>
          </g>
          <g id="g8844" transform="translate(45.395 13.321)">
            <path id="path8846" d="M0,0V1.326" fill="none" stroke="#000" stroke-linecap="round" stroke-linejoin="round" stroke-miterlimit="10" stroke-width="1.5"/>
          </g>
          <g id="g8848" transform="translate(40.754 14.481)">
            <path id="path8850" d="M-7.136,0l-.994,1.266.994.723" transform="translate(8.131)" fill="none" stroke="#000" stroke-linecap="round" stroke-linejoin="round" stroke-miterlimit="10" stroke-width="1.5"/>
          </g>
          <g id="g8852" transform="translate(39.522 19.193)">
            <path id="path8854" d="M0,0A3.147,3.147,0,0,0,4.453,0" fill="none" stroke="#000" stroke-linecap="round" stroke-linejoin="round" stroke-miterlimit="10" stroke-width="1.5"/>
          </g>
          <g id="g8856" transform="translate(6.449 82.274)">
            <path id="path8858" d="M0,0H70.6" fill="none" stroke="#000" stroke-linecap="round" stroke-linejoin="round" stroke-miterlimit="10" stroke-width="1.5"/>
          </g>
        </g>
      </g>
    </g>
  </g>
</svg>
