<svg xmlns="http://www.w3.org/2000/svg" xmlns:xlink="http://www.w3.org/1999/xlink" width="108" height="108" viewBox="0 0 108 108">
  <defs>
    <filter id="Trazado_982419" x="0" y="0" width="108" height="108" filterUnits="userSpaceOnUse">
      <feOffset dy="3" input="SourceAlpha"/>
      <feGaussianBlur stdDeviation="3" result="blur"/>
      <feFlood flood-opacity="0.161"/>
      <feComposite operator="in" in2="blur"/>
      <feComposite in="SourceGraphic"/>
    </filter>
  </defs>
  <g id="Grupo_1150913" data-name="Grupo 1150913" transform="translate(-201 -3096)">
    <g id="Grupo_1149913" data-name="Grupo 1149913" transform="translate(-12 2592)">
      <g id="Grupo_1148745" data-name="Grupo 1148745" transform="translate(12 182)">
        <g transform="matrix(1, 0, 0, 1, 201, 322)" filter="url(#Trazado_982419)">
          <g id="Trazado_982419-2" data-name="Trazado 982419" transform="translate(9 6)" fill="#9ff0fd">
            <path d="M 45 88.5 C 39.12687683105469 88.5 33.43022537231445 87.35007476806641 28.06830024719238 85.08217620849609 C 22.88852500915527 82.89131164550781 18.23629951477051 79.75458526611328 14.2408504486084 75.75914764404297 C 10.24541282653809 71.76370239257812 7.108687400817871 67.11147308349609 4.917825222015381 61.93170166015625 C 2.649924993515015 56.56977462768555 1.5 50.87312316894531 1.5 45 C 1.5 39.12687683105469 2.649924993515015 33.43022537231445 4.917825222015381 28.06830024719238 C 7.108687400817871 22.88852500915527 10.24541282653809 18.23629951477051 14.2408504486084 14.2408504486084 C 18.23629951477051 10.24541282653809 22.88852500915527 7.108687400817871 28.06830024719238 4.917825222015381 C 33.43022537231445 2.649924993515015 39.12687683105469 1.5 45 1.5 C 50.87312316894531 1.5 56.56977462768555 2.649924993515015 61.93170166015625 4.917825222015381 C 67.11147308349609 7.108687400817871 71.76370239257812 10.24541282653809 75.75914764404297 14.2408504486084 C 79.75458526611328 18.23629951477051 82.89131164550781 22.88852500915527 85.08217620849609 28.06830024719238 C 87.35007476806641 33.43022537231445 88.5 39.12687683105469 88.5 45 C 88.5 50.87312316894531 87.35007476806641 56.56977462768555 85.08217620849609 61.93170166015625 C 82.89131164550781 67.11147308349609 79.75458526611328 71.76370239257812 75.75914764404297 75.75914764404297 C 71.76370239257812 79.75458526611328 67.11147308349609 82.89131164550781 61.93170166015625 85.08217620849609 C 56.56977462768555 87.35007476806641 50.87312316894531 88.5 45 88.5 Z" stroke="none"/>
            <path d="M 45 3 C 39.32871246337891 3 33.82865524291992 4.110054016113281 28.65262985229492 6.299339294433594 C 23.65165710449219 8.414573669433594 19.15968322753906 11.44334411621094 15.301513671875 15.301513671875 C 11.44334411621094 19.15968322753906 8.414573669433594 23.65165710449219 6.299339294433594 28.65262985229492 C 4.110054016113281 33.82865524291992 3 39.32871246337891 3 45 C 3 50.67128753662109 4.110054016113281 56.17134475708008 6.299339294433594 61.34737396240234 C 8.414573669433594 66.34834289550781 11.44334411621094 70.84031677246094 15.301513671875 74.698486328125 C 19.15968322753906 78.55665588378906 23.65165710449219 81.58542633056641 28.65262985229492 83.70066070556641 C 33.82865524291992 85.88994598388672 39.32871246337891 87 45 87 C 50.67128753662109 87 56.17134475708008 85.88994598388672 61.34737396240234 83.70066070556641 C 66.34834289550781 81.58542633056641 70.84031677246094 78.55665588378906 74.698486328125 74.698486328125 C 78.55665588378906 70.84031677246094 81.58542633056641 66.34834289550781 83.70066070556641 61.34737396240234 C 85.88994598388672 56.17134475708008 87 50.67128753662109 87 45 C 87 39.32871246337891 85.88994598388672 33.82865524291992 83.70066070556641 28.65262985229492 C 81.58542633056641 23.65165710449219 78.55665588378906 19.15968322753906 74.698486328125 15.301513671875 C 70.84031677246094 11.44334411621094 66.34834289550781 8.414573669433594 61.34737396240234 6.299339294433594 C 56.17134475708008 4.110054016113281 50.67128753662109 3 45 3 M 45 0 C 69.85281372070312 0 90 20.14718627929688 90 45 C 90 69.85281372070312 69.85281372070312 90 45 90 C 20.14718627929688 90 0 69.85281372070312 0 45 C 0 20.14718627929688 20.14718627929688 0 45 0 Z" stroke="none" fill="#86815c"/>
          </g>
        </g>
      </g>
    </g>
    <g id="bombilla" transform="translate(223.748 3115.716)">
      <path id="Trazado_988815" data-name="Trazado 988815" d="M124.273,28.771A21.263,21.263,0,1,0,95.688,48.741v7.032a4.4,4.4,0,0,0,4.4,4.4h5.838a4.4,4.4,0,0,0,4.4-4.4V48.741a21.272,21.272,0,0,0,13.942-19.969Zm0,0" transform="translate(-71.757 -6.59)" fill="#ffe469"/>
      <path id="Trazado_988816" data-name="Trazado 988816" d="M238.19,7.508a21.4,21.4,0,0,0-2.444.141,21.267,21.267,0,0,1,4.877,41.092v7.032a4.4,4.4,0,0,1-4.4,4.4h4.888a4.4,4.4,0,0,0,4.4-4.4V48.74A21.267,21.267,0,0,0,238.19,7.508Zm0,0" transform="translate(-206.938 -6.59)" fill="#ffda30"/>
      <path id="Trazado_988817" data-name="Trazado 988817" d="M145.247,188.95c2.228,2.228,5.577,2.689,7.033,2.783a.654.654,0,0,0,.7-.7c-.094-1.456-.556-4.806-2.784-7.033s-5.577-2.69-7.033-2.783a.654.654,0,0,0-.7.7C142.557,183.373,143.019,186.722,145.247,188.95Zm0,0" transform="translate(-125.053 -159.074)" fill="#09a66d"/>
      <path id="Trazado_988818" data-name="Trazado 988818" d="M152.982,191.034c-.094-1.456-.556-4.805-2.784-7.033s-5.577-2.69-7.033-2.784a.654.654,0,0,0-.7.627,9.16,9.16,0,0,1,3.7,2.157c2.228,2.227,2.69,5.577,2.784,7.033a.668.668,0,0,1,0,.069,14.069,14.069,0,0,0,3.336.627A.654.654,0,0,0,152.982,191.034Zm0,0" transform="translate(-125.059 -159.07)" fill="#028f5d"/>
      <path id="Trazado_988819" data-name="Trazado 988819" d="M290.711,188.95c-2.226,2.226-5.571,2.689-7.03,2.783a.658.658,0,0,1-.7-.7c.095-1.458.558-4.8,2.783-7.029s5.571-2.689,7.029-2.783a.658.658,0,0,1,.7.7C293.4,183.379,292.936,186.724,290.711,188.95Zm0,0" transform="translate(-248.4 -159.074)" fill="#09a66d"/>
      <path id="Trazado_988820" data-name="Trazado 988820" d="M292.794,181.22a13.778,13.778,0,0,0-3.875.817,10.9,10.9,0,0,1-2.73,6.423,8.854,8.854,0,0,1-3.154,1.967c-.025.226-.042.43-.053.606a.658.658,0,0,0,.7.7c1.459-.095,4.8-.558,7.03-2.783s2.688-5.571,2.783-7.029a.657.657,0,0,0-.7-.7Zm0,0" transform="translate(-248.4 -159.073)" fill="#028f5d"/>
      <path id="Trazado_988821" data-name="Trazado 988821" d="M234.126,87.451c0,3.169-2.066,5.877-3.022,6.961a.634.634,0,0,1-.95,0c-.956-1.084-3.022-3.792-3.022-6.961s2.065-5.877,3.022-6.96a.634.634,0,0,1,.95,0C232.061,81.574,234.126,84.282,234.126,87.451Zm0,0" transform="translate(-199.377 -70.466)" fill="#09a66d"/>
      <path id="Trazado_988822" data-name="Trazado 988822" d="M241.742,80.491a.634.634,0,0,0-.95,0A14.321,14.321,0,0,0,239.25,82.6a8.673,8.673,0,0,1,0,9.694,14.345,14.345,0,0,0,1.541,2.114.634.634,0,0,0,.95,0c.956-1.084,3.022-3.792,3.022-6.961s-2.066-5.877-3.022-6.96Zm0,0" transform="translate(-210.014 -70.466)" fill="#028f5d"/>
      <path id="Trazado_988823" data-name="Trazado 988823" d="M206.072,389.83h-5.838a4.4,4.4,0,0,1-4.4-4.4V378.27a4.4,4.4,0,0,1,4.4-4.4h5.838a4.4,4.4,0,0,1,4.4,4.4v7.158A4.4,4.4,0,0,1,206.072,389.83Zm0,0" transform="translate(-171.901 -328.179)" fill="#f0f0f0"/>
      <path id="Trazado_988824" data-name="Trazado 988824" d="M241.006,373.867h-5.377a4.4,4.4,0,0,1,4.4,4.4v7.157a4.4,4.4,0,0,1-4.4,4.4h5.377a4.4,4.4,0,0,0,4.4-4.4V378.27A4.4,4.4,0,0,0,241.006,373.867Zm0,0" transform="translate(-206.835 -328.179)" fill="#e8e8e8"/>
      <g id="Grupo_1150814" data-name="Grupo 1150814" transform="translate(20.89 44.858)">
        <path id="Trazado_988825" data-name="Trazado 988825" d="M190.692,371.2l-17.565,1.041a2.061,2.061,0,0,1-.244-4.114l17.565-1.041a2.061,2.061,0,0,1,.244,4.114Zm0,0" transform="translate(-170.945 -367.079)" fill="#9e9e9e"/>
        <path id="Trazado_988826" data-name="Trazado 988826" d="M190.692,439.028l-17.565,1.041a2.061,2.061,0,1,1-.244-4.114l17.565-1.041a2.061,2.061,0,1,1,.244,4.114Zm0,0" transform="translate(-170.945 -426.622)" fill="#9e9e9e"/>
        <path id="Trazado_988827" data-name="Trazado 988827" d="M190.692,439.028l-17.565,1.041a2.061,2.061,0,1,1-.244-4.114l17.565-1.041a2.061,2.061,0,1,1,.244,4.114Zm0,0" transform="translate(-170.945 -426.622)" fill="#9e9e9e"/>
      </g>
      <path id="Trazado_988828" data-name="Trazado 988828" d="M114.513,35.017A22.188,22.188,0,0,0,87.753,1.758a.917.917,0,0,0,.717,1.687A20.353,20.353,0,1,1,103.428,41.29a.917.917,0,0,0-.6.861v1.956l-5.488.325V36.163l2.75-2.568c1.264-.038,5.343-.374,8.04-3.071,3.156-3.157,3.079-8.208,3.075-8.421a.917.917,0,0,0-.9-.9c-.213-.005-5.264-.082-8.421,3.075-2.664,2.664-3.025,6.676-3.07,7.993l-1.478,1.38V24.823a15.009,15.009,0,0,0,2.159-3,.917.917,0,0,0-1.611-.874,13.133,13.133,0,0,1-1.373,2.03c-.03,0-.061,0-.091,0s-.061,0-.091,0a10.117,10.117,0,0,1-2.49-6,10.224,10.224,0,0,1,2.582-6.106A10.174,10.174,0,0,1,99,16.984c0,.212-.011.43-.032.646a.917.917,0,0,0,1.824.179c.027-.275.041-.553.041-.825,0-4.464-3.626-7.981-3.78-8.129a.917.917,0,0,0-1.266,0c-.155.148-3.78,3.665-3.78,8.129,0,3.791,2.614,6.9,3.5,7.84v8.827l-1.48-1.386c-.046-1.327-.412-5.325-3.069-7.983-3.157-3.157-8.208-3.08-8.421-3.075a.917.917,0,0,0-.9.9c0,.213-.082,5.264,3.075,8.421,2.706,2.706,6.8,3.036,8.051,3.071l2.741,2.568V44.54l-5.489.326V42.15a.916.916,0,0,0-.6-.86A20.366,20.366,0,0,1,78.3,12.911a20.541,20.541,0,0,1,5.957-7.045.917.917,0,0,0-1.1-1.469,22.387,22.387,0,0,0-6.492,7.678A22.194,22.194,0,0,0,88.184,42.78v2.194c-3.9.084-3.956,6.051,0,5.962v2.328c-4.058.133-3.732,6.233.375,5.943A5.326,5.326,0,0,0,93.5,62.568h5.838a5.327,5.327,0,0,0,5.222-4.31l1.3-.077c3.813-.227,3.5-6.171-.352-5.944l-.849.05v-2.2c0-.043,0-.085,0-.128l1.2-.071c3.808-.225,3.513-6.173-.352-5.944l-.849.05V42.781a22.123,22.123,0,0,0,9.853-7.764Zm-11.33-9.438a10.221,10.221,0,0,1,6.144-2.492,10.18,10.18,0,0,1-2.494,6.142,10.222,10.222,0,0,1-6.144,2.492,10.175,10.175,0,0,1,2.494-6.142ZM83.519,23.086a10.219,10.219,0,0,1,6.142,2.492A10.124,10.124,0,0,1,92.14,31.59a.937.937,0,0,0-.088.081c-.011.012-.021.026-.032.039a10.082,10.082,0,0,1-6.008-2.482,10.224,10.224,0,0,1-2.492-6.141Zm22.167,22.689a1.146,1.146,0,0,1,.065,2.286L88.187,49.1a1.144,1.144,0,0,1-1.212-1.131,1.144,1.144,0,0,1,1.076-1.153l17.565-1.041.07,0Zm.779,8.6a1.157,1.157,0,0,1-.713,1.978l-4.375.259a.917.917,0,0,0,.109,1.83l1.153-.068a3.491,3.491,0,0,1-3.3,2.363H93.5a3.487,3.487,0,0,1-2.959-1.646l6.788-.4a.917.917,0,0,0-.108-1.83l-9.036.536a1.145,1.145,0,0,1-.136-2.284l17.565-1.041a1.134,1.134,0,0,1,.849.306ZM90.017,53.155V50.831l12.809-.759c0,.006,0,.013,0,.019V52.4Zm0,0" transform="translate(-65.17)"/>
      <path id="Trazado_988829" data-name="Trazado 988829" d="M76.142,7.08A.917.917,0,0,0,77.454,5.8L73.867,2.127a.917.917,0,0,0-1.311,1.281Zm0,0" transform="translate(-63.461 -1.625)"/>
      <path id="Trazado_988830" data-name="Trazado 988830" d="M33.56,54.482,37.974,57.1a.917.917,0,0,0,.936-1.576L34.5,52.9a.917.917,0,0,0-.935,1.577Zm0,0" transform="translate(-29.076 -46.322)"/>
      <path id="Trazado_988831" data-name="Trazado 988831" d="M9.133,113.99l4.942,1.388a.917.917,0,0,0,.5-1.765l-4.942-1.388a.917.917,0,0,0-.5,1.765Zm0,0" transform="translate(-7.454 -98.478)"/>
      <path id="Trazado_988832" data-name="Trazado 988832" d="M6.018,177.9a.917.917,0,0,0,.011-1.833L.9,176a.917.917,0,0,0-.021,1.833l5.133.061h.011Zm0,0" transform="translate(0 -154.495)"/>
      <path id="Trazado_988833" data-name="Trazado 988833" d="M15,230.124a.916.916,0,0,0-1.115-.662l-4.974,1.27a.917.917,0,0,0,.453,1.776l4.974-1.269A.917.917,0,0,0,15,230.124Zm0,0" transform="translate(-7.24 -201.396)"/>
      <path id="Trazado_988834" data-name="Trazado 988834" d="M38.817,279.226a.917.917,0,0,0-1.248-.35l-4.476,2.513a.917.917,0,0,0,.9,1.6l4.476-2.513a.916.916,0,0,0,.35-1.248Zm0,0" transform="translate(-28.652 -244.693)"/>
      <path id="Trazado_988835" data-name="Trazado 988835" d="M75.575,321.369,71.9,324.956c-.831.811.432,2.14,1.281,1.311l3.672-3.586A.917.917,0,0,0,75.575,321.369Zm0,0" transform="translate(-62.878 -281.868)"/>
      <path id="Trazado_988836" data-name="Trazado 988836" d="M396.415,321.395a.917.917,0,0,0-1.311,1.28l3.586,3.673a.917.917,0,0,0,1.312-1.28Zm0,0" transform="translate(-346.591 -281.877)"/>
      <path id="Trazado_988837" data-name="Trazado 988837" d="M433.234,281.465l-4.415-2.619a.917.917,0,0,0-.935,1.576l4.414,2.619A.917.917,0,0,0,433.234,281.465Zm0,0" transform="translate(-375.213 -244.653)"/>
      <path id="Trazado_988838" data-name="Trazado 988838" d="M454.071,230.827l-4.942-1.387a.917.917,0,0,0-.5,1.765l4.942,1.387A.917.917,0,0,0,454.071,230.827Zm0,0" transform="translate(-393.246 -201.368)"/>
      <path id="Trazado_988839" data-name="Trazado 988839" d="M461.028,176.565,455.9,176.5a.917.917,0,0,0-.022,1.833l5.133.061A.917.917,0,0,0,461.028,176.565Zm0,0" transform="translate(-399.397 -154.934)"/>
      <path id="Trazado_988840" data-name="Trazado 988840" d="M447.8,115.573a.936.936,0,0,0,1.115.662l4.974-1.27a.917.917,0,0,0-.453-1.776l-4.974,1.269A.916.916,0,0,0,447.8,115.573Zm0,0" transform="translate(-393.055 -99.329)"/>
      <path id="Trazado_988841" data-name="Trazado 988841" d="M427.461,57.519a.936.936,0,0,0,1.248.35l4.475-2.513a.917.917,0,0,0-.9-1.6l-4.476,2.514A.917.917,0,0,0,427.461,57.519Zm0,0" transform="translate(-375.122 -47.08)"/>
      <path id="Trazado_988842" data-name="Trazado 988842" d="M395.813,7.965a.914.914,0,0,0,.641-.261l3.672-3.586a.917.917,0,0,0-1.28-1.312l-3.673,3.586a.923.923,0,0,0,.64,1.572Zm0,0" transform="translate(-346.646 -2.234)"/>
    </g>
  </g>
</svg>
