<svg xmlns="http://www.w3.org/2000/svg" xmlns:xlink="http://www.w3.org/1999/xlink" width="108" height="108" viewBox="0 0 108 108">
  <defs>
    <filter id="Elipse_11495" x="0" y="0" width="108" height="108" filterUnits="userSpaceOnUse">
      <feOffset dy="3" input="SourceAlpha"/>
      <feGaussianBlur stdDeviation="3" result="blur"/>
      <feFlood flood-opacity="0.161"/>
      <feComposite operator="in" in2="blur"/>
      <feComposite in="SourceGraphic"/>
    </filter>
  </defs>
  <g id="Grupo_1150956" data-name="Grupo 1150956" transform="translate(-187 -1853)">
    <g transform="matrix(1, 0, 0, 1, 187, 1853)" filter="url(#Elipse_11495)">
      <g id="Elipse_11495-2" data-name="Elipse 11495" transform="translate(9 6)" fill="#f4fdfe" stroke="#9df0fd" stroke-width="2">
        <circle cx="45" cy="45" r="45" stroke="none"/>
        <circle cx="45" cy="45" r="44" fill="none"/>
      </g>
    </g>
    <g id="creative_7417530" transform="translate(213.184 1876.184)">
      <g id="Grupo_1150969" data-name="Grupo 1150969" transform="translate(0.897 0.897)">
        <g id="Grupo_1150954" data-name="Grupo 1150954" transform="translate(29.61 37.686)">
          <path id="Trazado_990172" data-name="Trazado 990172" d="M276.486,344l10.767,16.151h-4.486l-4.786-7.178L272,344Z" transform="translate(-272 -344)" fill="#cf9e76"/>
        </g>
        <g id="Grupo_1150955" data-name="Grupo 1150955" transform="translate(25.124 37.686)">
          <path id="Trazado_990173" data-name="Trazado 990173" d="M235.589,352.973v7.178H232V344h3.589Z" transform="translate(-232 -344)" fill="#cf9e76"/>
        </g>
        <g id="Grupo_1150956-2" data-name="Grupo 1150956" transform="translate(8.973 37.686)">
          <path id="Trazado_990174" data-name="Trazado 990174" d="M103.254,344l-5.982,8.973-4.786,7.178H88L98.767,344Z" transform="translate(-88 -344)" fill="#cf9e76"/>
        </g>
        <g id="Grupo_1150957" data-name="Grupo 1150957" transform="translate(30.028 5.384)">
          <path id="Trazado_990175" data-name="Trazado 990175" d="M295.94,57.795V82.47l-3.589-1.346H275.72a3.576,3.576,0,0,0,.48-1.795,1.795,1.795,0,1,0,0-3.589l3.88-5.82a8.907,8.907,0,0,0,1.082-2.256h5.805V62.281l-2.219-.555a12.525,12.525,0,0,0-1.261-3.04l1.178-1.962L283.941,56h10.2A1.794,1.794,0,0,1,295.94,57.795Z" transform="translate(-275.72 -56)" fill="#f0d0b4"/>
        </g>
        <g id="Grupo_1150958" data-name="Grupo 1150958" transform="translate(3.589 5.384)">
          <path id="Trazado_990176" data-name="Trazado 990176" d="M60.22,81.124H40V57.795A1.794,1.794,0,0,1,41.795,56H52l-.725.725,1.178,1.962a12.525,12.525,0,0,0-1.261,3.04l-2.219.555v5.384h5.805a8.907,8.907,0,0,0,1.082,2.256l3.88,5.82a1.795,1.795,0,0,0,0,3.589A3.576,3.576,0,0,0,60.22,81.124Z" transform="translate(-40 -56)" fill="#f0d0b4"/>
        </g>
        <g id="Grupo_1150959" data-name="Grupo 1150959" transform="translate(50.248 31.854)">
          <path id="Trazado_990177" data-name="Trazado 990177" d="M458.749,293.031a1.294,1.294,0,0,1,0,2.425L456,296.486V292Z" transform="translate(-456 -292)" fill="#969faa"/>
        </g>
        <g id="Grupo_1150960" data-name="Grupo 1150960" transform="translate(7.178 30.508)">
          <path id="Trazado_990178" data-name="Trazado 990178" d="M72,280h3.589v7.178H72Z" transform="translate(-72 -280)" fill="#ffeaa7"/>
        </g>
        <g id="Grupo_1150961" data-name="Grupo 1150961" transform="translate(0 30.508)">
          <path id="Trazado_990179" data-name="Trazado 990179" d="M15.178,280v7.178H9.795A1.794,1.794,0,0,1,8,285.384v-3.589A1.794,1.794,0,0,1,9.795,280h5.384Z" transform="translate(-8 -280)" fill="#ccd1d9"/>
        </g>
        <g id="Grupo_1150962" data-name="Grupo 1150962" transform="translate(46.659 30.508)">
          <path id="Trazado_990180" data-name="Trazado 990180" d="M427.589,281.346v4.486L424,287.178V280Z" transform="translate(-424 -280)" fill="#ccd1d9"/>
        </g>
        <g id="Grupo_1150963" data-name="Grupo 1150963" transform="translate(10.767 30.508)">
          <path id="Trazado_990181" data-name="Trazado 990181" d="M139.891,280v7.178H104V280h13.042a3.591,3.591,0,0,0,6.218,0Z" transform="translate(-104 -280)" fill="#ef7385"/>
        </g>
        <g id="Grupo_1150964" data-name="Grupo 1150964" transform="translate(12.562)">
          <path id="Trazado_990182" data-name="Trazado 990182" d="M125.768,24.932c.012.039.024.079.037.117H120V19.665l2.219-.555a12.525,12.525,0,0,1,1.261-3.04L122.3,14.108l.725-.725,3.082-3.082,1.962,1.178a12.525,12.525,0,0,1,3.04-1.261L131.665,8h5.384l.555,2.219a12.525,12.525,0,0,1,3.04,1.261L142.6,10.3l3.082,3.082.725.725-1.178,1.962a12.526,12.526,0,0,1,1.261,3.04l2.219.555v5.384h-5.805a8.952,8.952,0,0,0-8.532-11.665h-.038a8.952,8.952,0,0,0-8.569,11.548Z" transform="translate(-120 -8)" fill="#b4dd7f"/>
        </g>
        <g id="Grupo_1150965" data-name="Grupo 1150965" transform="translate(23.329 28.713)">
          <path id="Trazado_990183" data-name="Trazado 990183" d="M216,264h7.178A3.589,3.589,0,1,1,216,264Z" transform="translate(-216 -264)" fill="#aab2bd"/>
        </g>
        <g id="Grupo_1150966" data-name="Grupo 1150966" transform="translate(21.535 25.124)">
          <path id="Trazado_990184" data-name="Trazado 990184" d="M208.973,232a1.795,1.795,0,1,1,0,3.589h-7.178a1.795,1.795,0,1,1,0-3.589h7.178Z" transform="translate(-200 -232)" fill="#ccd1d9"/>
        </g>
        <g id="Grupo_1150967" data-name="Grupo 1150967" transform="translate(17.946 5.384)">
          <path id="Trazado_990185" data-name="Trazado 990185" d="M185.946,64.954a8.981,8.981,0,0,1-1.5,4.966l-3.88,5.82h-1.795l3.589-11.665-2.692.9-.9-1.795-1.795,1.795-1.795-1.795-.9,1.795-2.692-.9,3.589,11.665h-1.795l-3.88-5.82a8.907,8.907,0,0,1-1.082-2.256c-.013-.038-.025-.077-.037-.117A8.952,8.952,0,0,1,176.954,56h.038a8.953,8.953,0,0,1,8.954,8.954Z" transform="translate(-168 -56)" fill="#ffeaa7"/>
        </g>
        <g id="Grupo_1150968" data-name="Grupo 1150968" transform="translate(21.535 12.562)">
          <path id="Trazado_990186" data-name="Trazado 990186" d="M210.767,120.9l-3.589,11.665h-3.589L200,120.9l2.692.9.9-1.795,1.795,1.795L207.178,120l.9,1.795Z" transform="translate(-200 -120)" fill="#fcd770"/>
        </g>
      </g>
      <g id="Grupo_1150970" data-name="Grupo 1150970" transform="translate(0 0)">
        <path id="Trazado_990187" data-name="Trazado 990187" d="M54.209,32.942l-2.167-.812V8.076a2.7,2.7,0,0,0-2.692-2.692H39.518L36.2,2.069,34.084,3.341A13.394,13.394,0,0,0,31.808,2.4l-.6-2.4H24.423l-.6,2.4a13.393,13.393,0,0,0-2.276.943l-2.12-1.272L16.114,5.384H6.281A2.7,2.7,0,0,0,3.589,8.076V30.508h-.9A2.7,2.7,0,0,0,0,33.2v3.589a2.7,2.7,0,0,0,2.692,2.692H18.961L8.194,55.632H47.438L36.671,39.481H47.719l6.491-2.434a2.192,2.192,0,0,0,0-4.105ZM5.384,8.076a.9.9,0,0,1,.9-.9h8.537L15.9,8.986a13.393,13.393,0,0,0-.943,2.276l-2.4.6v6.084h1.795V13.263l2.052-.513.136-.511a11.6,11.6,0,0,1,1.169-2.821l.265-.458L16.891,7.145l2.816-2.816,1.815,1.089.458-.265A11.6,11.6,0,0,1,24.8,3.983l.511-.136.513-2.052h3.983l.513,2.052.511.136a11.6,11.6,0,0,1,2.821,1.169l.458.265,1.815-1.089,2.816,2.816L37.652,8.96l.265.458a11.6,11.6,0,0,1,1.169,2.821l.136.511,2.052.513v4.683H43.07V11.861l-2.4-.6a13.394,13.394,0,0,0-.943-2.276l1.085-1.808h8.537a.9.9,0,0,1,.9.9V31.456l-2.529-.948H32.212c.009-.044.016-.088.024-.132a2.691,2.691,0,0,0,.579-4.852L36.032,20.7a9.851,9.851,0,0,0-8.2-15.315H27.8A9.851,9.851,0,0,0,19.6,20.7l3.217,4.825a2.691,2.691,0,0,0,.579,4.852c.008.044.015.088.024.132H5.384Zm19.74,38.583H20.819L25.124,40.2Zm-5.5,1.795h5.5v5.384H16.033Zm7.3-8.973h1.795V53.837H26.919Zm3.589,8.973h5.5L39.6,53.837H30.508Zm0-1.795V40.2l4.305,6.458ZM12.562,37.686V32.3H24.229a4.481,4.481,0,0,0,7.173,0H46.659v5.384ZM10.767,32.3v5.384H8.973V32.3Zm20.638-3.589H24.227a.9.9,0,0,1,0-1.795h7.178a.9.9,0,0,1,0,1.795Zm-2.692-3.589v-9.5l.652-.651.689,1.377,1.776-.592-2.882,9.365Zm-1.795,0h-.235L23.8,15.759l1.776.592.689-1.377.652.651Zm4.006,0h-.1l3.745-12.17-3.608,1.2-1.106-2.212-2.04,2.04-2.04-2.04L24.67,14.157l-3.608-1.2,3.745,12.17h-.1L21.093,19.7A8.056,8.056,0,0,1,27.8,7.178h.038a8.057,8.057,0,0,1,6.7,12.525Zm-.571,5.384a2.691,2.691,0,0,1-5.075,0Zm18.1,2.192,1.795.673v3.243l-1.795.673ZM1.795,36.789V33.2a.9.9,0,0,1,.9-.9H7.178v5.384H2.692A.9.9,0,0,1,1.795,36.789Zm19.323,2.692h2.33L13.876,53.837h-2.33ZM44.085,53.837h-2.33L32.184,39.481h2.33Zm9.494-18.471-1.537.576v-1.9l1.537.576a.4.4,0,0,1,0,.744Z" transform="translate(0 0)"/>
        <ellipse id="Elipse_11659" data-name="Elipse 11659" cx="0.566" cy="1.132" rx="0.566" ry="1.132" transform="translate(7.445 26.684)"/>
        <circle id="Elipse_11660" data-name="Elipse 11660" cx="0.566" cy="0.566" r="0.566" transform="translate(7.445 23.289)"/>
        <ellipse id="Elipse_11661" data-name="Elipse 11661" cx="0.566" cy="1.132" rx="0.566" ry="1.132" transform="translate(7.445 19.894)"/>
        <ellipse id="Elipse_11662" data-name="Elipse 11662" cx="0.566" cy="1.132" rx="0.566" ry="1.132" transform="translate(40.265 19.894)"/>
        <circle id="Elipse_11663" data-name="Elipse 11663" cx="1.132" cy="1.132" r="1.132" transform="translate(42.528 26.684)"/>
        <ellipse id="Elipse_11664" data-name="Elipse 11664" cx="0.566" cy="1.132" rx="0.566" ry="1.132" transform="translate(47.055 26.684)"/>
        <ellipse id="Elipse_11665" data-name="Elipse 11665" cx="0.566" cy="1.132" rx="0.566" ry="1.132" transform="translate(40.265 26.684)"/>
        <path id="Trazado_990188" data-name="Trazado 990188" d="M384,176h5.384v1.795H384Z" transform="translate(-340.93 -156.26)"/>
        <path id="Trazado_990189" data-name="Trazado 990189" d="M352,208h8.973v1.795H352Z" transform="translate(-312.519 -184.671)"/>
      </g>
    </g>
  </g>
</svg>
